<mxfile host="app.diagrams.net" agent="Mozilla/5.0 (Windows NT 10.0; Win64; x64) AppleWebKit/537.36 (KHTML, like Gecko) Chrome/133.0.0.0 Safari/537.36" version="26.0.16">
  <diagram id="C5RBs43oDa-KdzZeNtuy" name="Page-1">
    <mxGraphModel dx="883" dy="1275" grid="1" gridSize="10" guides="1" tooltips="1" connect="1" arrows="1" fold="1" page="1" pageScale="1" pageWidth="827" pageHeight="1169" math="0" shadow="0">
      <root>
        <mxCell id="WIyWlLk6GJQsqaUBKTNV-0" />
        <mxCell id="WIyWlLk6GJQsqaUBKTNV-1" parent="WIyWlLk6GJQsqaUBKTNV-0" />
        <mxCell id="aPB8ZJ7FrWyF1JdVwj2b-15" value="" style="edgeStyle=orthogonalEdgeStyle;rounded=0;orthogonalLoop=1;jettySize=auto;html=1;" edge="1" parent="WIyWlLk6GJQsqaUBKTNV-1" source="aPB8ZJ7FrWyF1JdVwj2b-13" target="aPB8ZJ7FrWyF1JdVwj2b-14">
          <mxGeometry relative="1" as="geometry" />
        </mxCell>
        <mxCell id="aPB8ZJ7FrWyF1JdVwj2b-16" value="" style="edgeStyle=orthogonalEdgeStyle;rounded=0;orthogonalLoop=1;jettySize=auto;html=1;" edge="1" parent="WIyWlLk6GJQsqaUBKTNV-1" source="aPB8ZJ7FrWyF1JdVwj2b-13" target="aPB8ZJ7FrWyF1JdVwj2b-14">
          <mxGeometry relative="1" as="geometry" />
        </mxCell>
        <mxCell id="aPB8ZJ7FrWyF1JdVwj2b-18" value="" style="edgeStyle=orthogonalEdgeStyle;rounded=0;orthogonalLoop=1;jettySize=auto;html=1;" edge="1" parent="WIyWlLk6GJQsqaUBKTNV-1" source="aPB8ZJ7FrWyF1JdVwj2b-13" target="aPB8ZJ7FrWyF1JdVwj2b-17">
          <mxGeometry relative="1" as="geometry" />
        </mxCell>
        <mxCell id="aPB8ZJ7FrWyF1JdVwj2b-20" value="" style="edgeStyle=orthogonalEdgeStyle;rounded=0;orthogonalLoop=1;jettySize=auto;html=1;" edge="1" parent="WIyWlLk6GJQsqaUBKTNV-1" source="aPB8ZJ7FrWyF1JdVwj2b-13" target="aPB8ZJ7FrWyF1JdVwj2b-19">
          <mxGeometry relative="1" as="geometry" />
        </mxCell>
        <mxCell id="aPB8ZJ7FrWyF1JdVwj2b-13" value="pizza size" style="rounded=0;whiteSpace=wrap;html=1;" vertex="1" parent="WIyWlLk6GJQsqaUBKTNV-1">
          <mxGeometry x="340" y="40" width="120" height="60" as="geometry" />
        </mxCell>
        <mxCell id="aPB8ZJ7FrWyF1JdVwj2b-24" style="edgeStyle=orthogonalEdgeStyle;rounded=0;orthogonalLoop=1;jettySize=auto;html=1;" edge="1" parent="WIyWlLk6GJQsqaUBKTNV-1" source="aPB8ZJ7FrWyF1JdVwj2b-14" target="aPB8ZJ7FrWyF1JdVwj2b-21">
          <mxGeometry relative="1" as="geometry" />
        </mxCell>
        <mxCell id="aPB8ZJ7FrWyF1JdVwj2b-14" value="large = $25" style="rhombus;whiteSpace=wrap;html=1;rounded=0;direction=south;" vertex="1" parent="WIyWlLk6GJQsqaUBKTNV-1">
          <mxGeometry x="460" y="160" width="80" height="80" as="geometry" />
        </mxCell>
        <mxCell id="aPB8ZJ7FrWyF1JdVwj2b-28" value="" style="edgeStyle=orthogonalEdgeStyle;rounded=0;orthogonalLoop=1;jettySize=auto;html=1;" edge="1" parent="WIyWlLk6GJQsqaUBKTNV-1" source="aPB8ZJ7FrWyF1JdVwj2b-17" target="aPB8ZJ7FrWyF1JdVwj2b-27">
          <mxGeometry relative="1" as="geometry" />
        </mxCell>
        <mxCell id="aPB8ZJ7FrWyF1JdVwj2b-17" value="small = $15" style="rhombus;whiteSpace=wrap;html=1;rounded=0;" vertex="1" parent="WIyWlLk6GJQsqaUBKTNV-1">
          <mxGeometry x="260" y="160" width="80" height="80" as="geometry" />
        </mxCell>
        <mxCell id="aPB8ZJ7FrWyF1JdVwj2b-22" value="" style="edgeStyle=orthogonalEdgeStyle;rounded=0;orthogonalLoop=1;jettySize=auto;html=1;" edge="1" parent="WIyWlLk6GJQsqaUBKTNV-1" source="aPB8ZJ7FrWyF1JdVwj2b-19" target="aPB8ZJ7FrWyF1JdVwj2b-21">
          <mxGeometry relative="1" as="geometry" />
        </mxCell>
        <mxCell id="aPB8ZJ7FrWyF1JdVwj2b-19" value="medium = $20" style="rhombus;whiteSpace=wrap;html=1;rounded=0;" vertex="1" parent="WIyWlLk6GJQsqaUBKTNV-1">
          <mxGeometry x="360" y="160" width="80" height="80" as="geometry" />
        </mxCell>
        <mxCell id="aPB8ZJ7FrWyF1JdVwj2b-26" value="" style="edgeStyle=orthogonalEdgeStyle;rounded=0;orthogonalLoop=1;jettySize=auto;html=1;" edge="1" parent="WIyWlLk6GJQsqaUBKTNV-1" source="aPB8ZJ7FrWyF1JdVwj2b-21" target="aPB8ZJ7FrWyF1JdVwj2b-25">
          <mxGeometry relative="1" as="geometry" />
        </mxCell>
        <mxCell id="aPB8ZJ7FrWyF1JdVwj2b-38" value="" style="edgeStyle=orthogonalEdgeStyle;rounded=0;orthogonalLoop=1;jettySize=auto;html=1;" edge="1" parent="WIyWlLk6GJQsqaUBKTNV-1" source="aPB8ZJ7FrWyF1JdVwj2b-21" target="aPB8ZJ7FrWyF1JdVwj2b-37">
          <mxGeometry relative="1" as="geometry" />
        </mxCell>
        <mxCell id="aPB8ZJ7FrWyF1JdVwj2b-21" value="would you like pepperonis" style="whiteSpace=wrap;html=1;rounded=0;" vertex="1" parent="WIyWlLk6GJQsqaUBKTNV-1">
          <mxGeometry x="390" y="300" width="120" height="60" as="geometry" />
        </mxCell>
        <mxCell id="aPB8ZJ7FrWyF1JdVwj2b-34" style="edgeStyle=orthogonalEdgeStyle;rounded=0;orthogonalLoop=1;jettySize=auto;html=1;entryX=0.5;entryY=0;entryDx=0;entryDy=0;" edge="1" parent="WIyWlLk6GJQsqaUBKTNV-1" source="aPB8ZJ7FrWyF1JdVwj2b-25" target="aPB8ZJ7FrWyF1JdVwj2b-31">
          <mxGeometry relative="1" as="geometry" />
        </mxCell>
        <mxCell id="aPB8ZJ7FrWyF1JdVwj2b-25" value="yes + $3" style="rhombus;whiteSpace=wrap;html=1;rounded=0;" vertex="1" parent="WIyWlLk6GJQsqaUBKTNV-1">
          <mxGeometry x="410" y="430" width="80" height="80" as="geometry" />
        </mxCell>
        <mxCell id="aPB8ZJ7FrWyF1JdVwj2b-30" value="" style="edgeStyle=orthogonalEdgeStyle;rounded=0;orthogonalLoop=1;jettySize=auto;html=1;" edge="1" parent="WIyWlLk6GJQsqaUBKTNV-1" source="aPB8ZJ7FrWyF1JdVwj2b-27" target="aPB8ZJ7FrWyF1JdVwj2b-29">
          <mxGeometry relative="1" as="geometry" />
        </mxCell>
        <mxCell id="aPB8ZJ7FrWyF1JdVwj2b-41" value="" style="edgeStyle=orthogonalEdgeStyle;rounded=0;orthogonalLoop=1;jettySize=auto;html=1;" edge="1" parent="WIyWlLk6GJQsqaUBKTNV-1" source="aPB8ZJ7FrWyF1JdVwj2b-27" target="aPB8ZJ7FrWyF1JdVwj2b-40">
          <mxGeometry relative="1" as="geometry" />
        </mxCell>
        <mxCell id="aPB8ZJ7FrWyF1JdVwj2b-27" value="would you like pepperonis" style="whiteSpace=wrap;html=1;rounded=0;" vertex="1" parent="WIyWlLk6GJQsqaUBKTNV-1">
          <mxGeometry x="240" y="300" width="120" height="60" as="geometry" />
        </mxCell>
        <mxCell id="aPB8ZJ7FrWyF1JdVwj2b-32" value="" style="edgeStyle=orthogonalEdgeStyle;rounded=0;orthogonalLoop=1;jettySize=auto;html=1;" edge="1" parent="WIyWlLk6GJQsqaUBKTNV-1" source="aPB8ZJ7FrWyF1JdVwj2b-29" target="aPB8ZJ7FrWyF1JdVwj2b-31">
          <mxGeometry relative="1" as="geometry" />
        </mxCell>
        <mxCell id="aPB8ZJ7FrWyF1JdVwj2b-29" value="yes + $2" style="rhombus;whiteSpace=wrap;html=1;rounded=0;" vertex="1" parent="WIyWlLk6GJQsqaUBKTNV-1">
          <mxGeometry x="260" y="430" width="80" height="80" as="geometry" />
        </mxCell>
        <mxCell id="aPB8ZJ7FrWyF1JdVwj2b-36" value="" style="edgeStyle=orthogonalEdgeStyle;rounded=0;orthogonalLoop=1;jettySize=auto;html=1;" edge="1" parent="WIyWlLk6GJQsqaUBKTNV-1" source="aPB8ZJ7FrWyF1JdVwj2b-31" target="aPB8ZJ7FrWyF1JdVwj2b-35">
          <mxGeometry relative="1" as="geometry">
            <Array as="points">
              <mxPoint x="330" y="640" />
              <mxPoint x="330" y="640" />
            </Array>
          </mxGeometry>
        </mxCell>
        <mxCell id="aPB8ZJ7FrWyF1JdVwj2b-45" style="edgeStyle=orthogonalEdgeStyle;rounded=0;orthogonalLoop=1;jettySize=auto;html=1;entryX=0.5;entryY=0;entryDx=0;entryDy=0;" edge="1" parent="WIyWlLk6GJQsqaUBKTNV-1" source="aPB8ZJ7FrWyF1JdVwj2b-31" target="aPB8ZJ7FrWyF1JdVwj2b-44">
          <mxGeometry relative="1" as="geometry">
            <Array as="points">
              <mxPoint x="430" y="650" />
              <mxPoint x="430" y="650" />
            </Array>
          </mxGeometry>
        </mxCell>
        <mxCell id="aPB8ZJ7FrWyF1JdVwj2b-31" value="would you like extra cheese" style="whiteSpace=wrap;html=1;rounded=0;" vertex="1" parent="WIyWlLk6GJQsqaUBKTNV-1">
          <mxGeometry x="320" y="560" width="120" height="60" as="geometry" />
        </mxCell>
        <mxCell id="aPB8ZJ7FrWyF1JdVwj2b-48" style="edgeStyle=orthogonalEdgeStyle;rounded=0;orthogonalLoop=1;jettySize=auto;html=1;entryX=0.5;entryY=0;entryDx=0;entryDy=0;" edge="1" parent="WIyWlLk6GJQsqaUBKTNV-1" source="aPB8ZJ7FrWyF1JdVwj2b-35" target="aPB8ZJ7FrWyF1JdVwj2b-46">
          <mxGeometry relative="1" as="geometry" />
        </mxCell>
        <mxCell id="aPB8ZJ7FrWyF1JdVwj2b-35" value="yes + $1" style="rhombus;whiteSpace=wrap;html=1;rounded=0;" vertex="1" parent="WIyWlLk6GJQsqaUBKTNV-1">
          <mxGeometry x="290" y="690" width="80" height="80" as="geometry" />
        </mxCell>
        <mxCell id="aPB8ZJ7FrWyF1JdVwj2b-39" style="edgeStyle=orthogonalEdgeStyle;rounded=0;orthogonalLoop=1;jettySize=auto;html=1;entryX=1;entryY=0.5;entryDx=0;entryDy=0;" edge="1" parent="WIyWlLk6GJQsqaUBKTNV-1" source="aPB8ZJ7FrWyF1JdVwj2b-37" target="aPB8ZJ7FrWyF1JdVwj2b-31">
          <mxGeometry relative="1" as="geometry">
            <mxPoint x="550" y="590" as="targetPoint" />
            <Array as="points">
              <mxPoint x="550" y="590" />
            </Array>
          </mxGeometry>
        </mxCell>
        <mxCell id="aPB8ZJ7FrWyF1JdVwj2b-37" value="no" style="rhombus;whiteSpace=wrap;html=1;rounded=0;" vertex="1" parent="WIyWlLk6GJQsqaUBKTNV-1">
          <mxGeometry x="510" y="430" width="80" height="80" as="geometry" />
        </mxCell>
        <mxCell id="aPB8ZJ7FrWyF1JdVwj2b-42" style="edgeStyle=orthogonalEdgeStyle;rounded=0;orthogonalLoop=1;jettySize=auto;html=1;entryX=0;entryY=0.5;entryDx=0;entryDy=0;" edge="1" parent="WIyWlLk6GJQsqaUBKTNV-1" source="aPB8ZJ7FrWyF1JdVwj2b-40" target="aPB8ZJ7FrWyF1JdVwj2b-31">
          <mxGeometry relative="1" as="geometry">
            <Array as="points">
              <mxPoint x="200" y="590" />
            </Array>
          </mxGeometry>
        </mxCell>
        <mxCell id="aPB8ZJ7FrWyF1JdVwj2b-40" value="no" style="rhombus;whiteSpace=wrap;html=1;rounded=0;" vertex="1" parent="WIyWlLk6GJQsqaUBKTNV-1">
          <mxGeometry x="160" y="430" width="80" height="80" as="geometry" />
        </mxCell>
        <mxCell id="aPB8ZJ7FrWyF1JdVwj2b-47" style="edgeStyle=orthogonalEdgeStyle;rounded=0;orthogonalLoop=1;jettySize=auto;html=1;entryX=0.5;entryY=0;entryDx=0;entryDy=0;" edge="1" parent="WIyWlLk6GJQsqaUBKTNV-1" source="aPB8ZJ7FrWyF1JdVwj2b-44" target="aPB8ZJ7FrWyF1JdVwj2b-46">
          <mxGeometry relative="1" as="geometry" />
        </mxCell>
        <mxCell id="aPB8ZJ7FrWyF1JdVwj2b-44" value="no" style="rhombus;whiteSpace=wrap;html=1;" vertex="1" parent="WIyWlLk6GJQsqaUBKTNV-1">
          <mxGeometry x="390" y="690" width="80" height="80" as="geometry" />
        </mxCell>
        <mxCell id="aPB8ZJ7FrWyF1JdVwj2b-46" value="order total" style="shape=process;whiteSpace=wrap;html=1;backgroundOutline=1;" vertex="1" parent="WIyWlLk6GJQsqaUBKTNV-1">
          <mxGeometry x="320" y="820" width="120" height="60" as="geometry" />
        </mxCell>
      </root>
    </mxGraphModel>
  </diagram>
</mxfile>
